# xmcd CD database file
#
# Track frame offsets:
#	150
#	23364
#	39625
#	60346
#	80899
#	105239
#	121497
#	136106
#	159927
#	185659
#	207889
#	229901
#
# Disc length: 3650 seconds
#
# Revision: 0
# Processed by: cddbd v1.5.2PL0 Copyright (c) Steve Scherf et al.
# Submitted via: CDex 1.70beta2
#
DISCID=920e400c
DTITLE=Soneros - Asi somos los Soneros
DYEAR=1900
DGENRE=Salsa
TTITLE0=Aqui el que baila gana
TTITLE1=Procura
TTITLE2=Detalles
TTITLE3=Odiame
TTITLE4=El cuarto de Tula
TTITLE5=Mala maña
TTITLE6=Frenesi
TTITLE7=Una aventura
TTITLE8=Mi tierra
TTITLE9=Juliana
TTITLE10=Se te acabo la rumba
TTITLE11=Homenaje a Celia
EXTD=
EXTT0=
EXTT1=
EXTT2=
EXTT3=
EXTT4=
EXTT5=
EXTT6=
EXTT7=
EXTT8=
EXTT9=
EXTT10=
EXTT11=
PLAYORDER=
